<svg xmlns="http://www.w3.org/2000/svg" viewBox="0 0 64 64" fill="none">
  <defs>
    <linearGradient id="g1" x1="32" y1="8" x2="32" y2="58" gradientUnits="userSpaceOnUse">
      <stop offset="0%" stop-color="#ff9800"/>
      <stop offset="100%" stop-color="#c62828"/>
    </linearGradient>
    <linearGradient id="g2" x1="32" y1="3" x2="32" y2="21" gradientUnits="userSpaceOnUse">
      <stop offset="0%" stop-color="#ffe066"/>
      <stop offset="100%" stop-color="#ff8c00"/>
    </linearGradient>
  </defs>

  <!-- Left arm: thick open triangle stroke rendered as filled shape -->
  <path d="M5 58 L22 24 L32 43 L27 43 L22 32 L12 58 Z" fill="url(#g1)"/>

  <!-- Right arm: mirror -->
  <path d="M59 58 L42 24 L32 43 L37 43 L42 32 L52 58 Z" fill="url(#g1)"/>

  <!-- Bottom crossbar connecting the two feet -->
  <path d="M12 58 L52 58 L50 54 L14 54 Z" fill="url(#g1)" opacity="0.6"/>

  <!-- Flame -->
  <path d="M32 4 C30 8.5 27.5 11 28.5 15.5 C29.2 18.5 32 20 32 20 C32 20 34.8 18.5 35.5 15.5 C36.5 11 34 8.5 32 4 Z" fill="url(#g2)"/>

  <!-- Left spark -->
  <polygon points="24,15 22,8 21,15" fill="#ffcc00" opacity="0.95"/>
  <!-- Right spark -->
  <polygon points="40,15 42,8 43,15" fill="#ffcc00" opacity="0.95"/>
</svg>
